<mxfile host="app.diagrams.net" agent="Mozilla/5.0 (Windows NT 10.0; Win64; x64) AppleWebKit/537.36 (KHTML, like Gecko) Chrome/134.0.0.0 YaBrowser/25.4.0.0 Safari/537.36" version="26.2.14">
  <diagram name="Страница — 1" id="ksAHQVp9pkomZ5HP465v">
    <mxGraphModel dx="3313" dy="1933" grid="1" gridSize="10" guides="1" tooltips="1" connect="1" arrows="1" fold="1" page="1" pageScale="1" pageWidth="827" pageHeight="1169" math="0" shadow="0">
      <root>
        <mxCell id="0" />
        <mxCell id="1" parent="0" />
        <mxCell id="HkZ7-6mY7OGyiAFKH2yv-4" style="edgeStyle=orthogonalEdgeStyle;rounded=0;orthogonalLoop=1;jettySize=auto;html=1;entryX=0.5;entryY=0;entryDx=0;entryDy=0;" edge="1" parent="1" source="HkZ7-6mY7OGyiAFKH2yv-5" target="HkZ7-6mY7OGyiAFKH2yv-7">
          <mxGeometry relative="1" as="geometry" />
        </mxCell>
        <mxCell id="HkZ7-6mY7OGyiAFKH2yv-5" value="1" style="ellipse;whiteSpace=wrap;html=1;aspect=fixed;" vertex="1" parent="1">
          <mxGeometry x="535" y="920" width="50" height="50" as="geometry" />
        </mxCell>
        <mxCell id="HkZ7-6mY7OGyiAFKH2yv-6" style="edgeStyle=orthogonalEdgeStyle;rounded=0;orthogonalLoop=1;jettySize=auto;html=1;" edge="1" parent="1" source="HkZ7-6mY7OGyiAFKH2yv-7" target="HkZ7-6mY7OGyiAFKH2yv-9">
          <mxGeometry relative="1" as="geometry" />
        </mxCell>
        <mxCell id="HkZ7-6mY7OGyiAFKH2yv-7" value="i=0" style="rounded=0;whiteSpace=wrap;html=1;" vertex="1" parent="1">
          <mxGeometry x="500" y="1000" width="120" height="60" as="geometry" />
        </mxCell>
        <mxCell id="HkZ7-6mY7OGyiAFKH2yv-8" style="edgeStyle=orthogonalEdgeStyle;rounded=0;orthogonalLoop=1;jettySize=auto;html=1;entryX=0.5;entryY=0;entryDx=0;entryDy=0;" edge="1" parent="1" source="HkZ7-6mY7OGyiAFKH2yv-9" target="HkZ7-6mY7OGyiAFKH2yv-16">
          <mxGeometry relative="1" as="geometry" />
        </mxCell>
        <mxCell id="HkZ7-6mY7OGyiAFKH2yv-9" value="Берем i-ый вектор и вектор вопроса пользователя" style="rounded=0;whiteSpace=wrap;html=1;" vertex="1" parent="1">
          <mxGeometry x="390" y="1220" width="120" height="60" as="geometry" />
        </mxCell>
        <mxCell id="HkZ7-6mY7OGyiAFKH2yv-10" style="edgeStyle=orthogonalEdgeStyle;rounded=0;orthogonalLoop=1;jettySize=auto;html=1;entryX=0.5;entryY=0;entryDx=0;entryDy=0;" edge="1" parent="1" source="HkZ7-6mY7OGyiAFKH2yv-11" target="HkZ7-6mY7OGyiAFKH2yv-30">
          <mxGeometry relative="1" as="geometry">
            <Array as="points">
              <mxPoint x="852" y="1140" />
            </Array>
            <mxPoint x="660" y="1220" as="targetPoint" />
          </mxGeometry>
        </mxCell>
        <mxCell id="HkZ7-6mY7OGyiAFKH2yv-11" value="i&amp;gt;размера вектора вопросов из бз?" style="rhombus;whiteSpace=wrap;html=1;" vertex="1" parent="1">
          <mxGeometry x="485" y="1100" width="150" height="80" as="geometry" />
        </mxCell>
        <mxCell id="HkZ7-6mY7OGyiAFKH2yv-12" value="Нет" style="text;html=1;align=center;verticalAlign=middle;resizable=0;points=[];autosize=1;strokeColor=none;fillColor=none;" vertex="1" parent="1">
          <mxGeometry x="440" y="1118" width="40" height="30" as="geometry" />
        </mxCell>
        <mxCell id="HkZ7-6mY7OGyiAFKH2yv-13" style="edgeStyle=orthogonalEdgeStyle;rounded=0;orthogonalLoop=1;jettySize=auto;html=1;" edge="1" parent="1" source="HkZ7-6mY7OGyiAFKH2yv-14">
          <mxGeometry relative="1" as="geometry">
            <mxPoint x="560" y="1070" as="targetPoint" />
            <Array as="points">
              <mxPoint x="190" y="1460" />
              <mxPoint x="190" y="1070" />
            </Array>
          </mxGeometry>
        </mxCell>
        <mxCell id="HkZ7-6mY7OGyiAFKH2yv-14" value="i++" style="rounded=0;whiteSpace=wrap;html=1;" vertex="1" parent="1">
          <mxGeometry x="255" y="1430" width="120" height="60" as="geometry" />
        </mxCell>
        <mxCell id="HkZ7-6mY7OGyiAFKH2yv-15" style="edgeStyle=orthogonalEdgeStyle;rounded=0;orthogonalLoop=1;jettySize=auto;html=1;entryX=0.5;entryY=0;entryDx=0;entryDy=0;" edge="1" parent="1" source="HkZ7-6mY7OGyiAFKH2yv-16" target="HkZ7-6mY7OGyiAFKH2yv-14">
          <mxGeometry relative="1" as="geometry">
            <Array as="points">
              <mxPoint x="315" y="1360" />
            </Array>
          </mxGeometry>
        </mxCell>
        <mxCell id="HkZ7-6mY7OGyiAFKH2yv-16" value="Схожесть векторов больше определенного числа?" style="rhombus;whiteSpace=wrap;html=1;" vertex="1" parent="1">
          <mxGeometry x="375" y="1320" width="150" height="80" as="geometry" />
        </mxCell>
        <mxCell id="HkZ7-6mY7OGyiAFKH2yv-17" value="Нет" style="text;html=1;align=center;verticalAlign=middle;resizable=0;points=[];autosize=1;strokeColor=none;fillColor=none;" vertex="1" parent="1">
          <mxGeometry x="330" y="1328" width="40" height="30" as="geometry" />
        </mxCell>
        <mxCell id="HkZ7-6mY7OGyiAFKH2yv-18" value="Отображаем пользователю ответ из внешней модели" style="text;html=1;align=center;verticalAlign=middle;whiteSpace=wrap;rounded=0;" vertex="1" parent="1">
          <mxGeometry x="970" y="1420" width="90" height="80" as="geometry" />
        </mxCell>
        <mxCell id="HkZ7-6mY7OGyiAFKH2yv-19" style="edgeStyle=orthogonalEdgeStyle;rounded=0;orthogonalLoop=1;jettySize=auto;html=1;entryX=0.5;entryY=0;entryDx=0;entryDy=0;" edge="1" parent="1" source="HkZ7-6mY7OGyiAFKH2yv-20" target="HkZ7-6mY7OGyiAFKH2yv-22">
          <mxGeometry relative="1" as="geometry" />
        </mxCell>
        <mxCell id="HkZ7-6mY7OGyiAFKH2yv-20" value="Берем ответ из бз" style="rounded=0;whiteSpace=wrap;html=1;" vertex="1" parent="1">
          <mxGeometry x="500" y="1430" width="120" height="60" as="geometry" />
        </mxCell>
        <mxCell id="HkZ7-6mY7OGyiAFKH2yv-21" style="edgeStyle=orthogonalEdgeStyle;rounded=0;orthogonalLoop=1;jettySize=auto;html=1;entryX=0.625;entryY=0.008;entryDx=0;entryDy=0;entryPerimeter=0;" edge="1" parent="1" source="HkZ7-6mY7OGyiAFKH2yv-16" target="HkZ7-6mY7OGyiAFKH2yv-20">
          <mxGeometry relative="1" as="geometry">
            <Array as="points">
              <mxPoint x="574" y="1360" />
              <mxPoint x="574" y="1431" />
            </Array>
          </mxGeometry>
        </mxCell>
        <mxCell id="HkZ7-6mY7OGyiAFKH2yv-22" value="Выход" style="rounded=1;whiteSpace=wrap;html=1;arcSize=50;" vertex="1" parent="1">
          <mxGeometry x="500" y="1530" width="120" height="60" as="geometry" />
        </mxCell>
        <mxCell id="HkZ7-6mY7OGyiAFKH2yv-23" value="" style="strokeWidth=2;html=1;shape=mxgraph.flowchart.annotation_1;align=left;pointerEvents=1;direction=east;" vertex="1" parent="1">
          <mxGeometry x="710" y="1520" width="50" height="100" as="geometry" />
        </mxCell>
        <mxCell id="HkZ7-6mY7OGyiAFKH2yv-24" value="" style="endArrow=none;dashed=1;html=1;dashPattern=1 3;strokeWidth=2;rounded=0;exitX=1;exitY=0.5;exitDx=0;exitDy=0;entryX=0.012;entryY=0.426;entryDx=0;entryDy=0;entryPerimeter=0;" edge="1" parent="1" source="HkZ7-6mY7OGyiAFKH2yv-22" target="HkZ7-6mY7OGyiAFKH2yv-23">
          <mxGeometry width="50" height="50" relative="1" as="geometry">
            <mxPoint x="630" y="1560" as="sourcePoint" />
            <mxPoint x="680" y="1510" as="targetPoint" />
          </mxGeometry>
        </mxCell>
        <mxCell id="HkZ7-6mY7OGyiAFKH2yv-25" value="Отображаем пользователю ответ из бз" style="text;html=1;align=center;verticalAlign=middle;whiteSpace=wrap;rounded=0;" vertex="1" parent="1">
          <mxGeometry x="720" y="1530" width="100" height="80" as="geometry" />
        </mxCell>
        <mxCell id="HkZ7-6mY7OGyiAFKH2yv-26" value="Выход" style="rounded=1;whiteSpace=wrap;html=1;arcSize=50;" vertex="1" parent="1">
          <mxGeometry x="792" y="1420" width="120" height="60" as="geometry" />
        </mxCell>
        <mxCell id="HkZ7-6mY7OGyiAFKH2yv-27" value="" style="strokeWidth=2;html=1;shape=mxgraph.flowchart.annotation_1;align=left;pointerEvents=1;direction=east;" vertex="1" parent="1">
          <mxGeometry x="960" y="1410" width="50" height="100" as="geometry" />
        </mxCell>
        <mxCell id="HkZ7-6mY7OGyiAFKH2yv-28" value="" style="endArrow=none;dashed=1;html=1;dashPattern=1 3;strokeWidth=2;rounded=0;exitX=1;exitY=0.5;exitDx=0;exitDy=0;entryX=0.012;entryY=0.426;entryDx=0;entryDy=0;entryPerimeter=0;" edge="1" parent="1" source="HkZ7-6mY7OGyiAFKH2yv-26" target="HkZ7-6mY7OGyiAFKH2yv-27">
          <mxGeometry width="50" height="50" relative="1" as="geometry">
            <mxPoint x="872" y="1350" as="sourcePoint" />
            <mxPoint x="922" y="1300" as="targetPoint" />
          </mxGeometry>
        </mxCell>
        <mxCell id="HkZ7-6mY7OGyiAFKH2yv-29" style="edgeStyle=orthogonalEdgeStyle;rounded=0;orthogonalLoop=1;jettySize=auto;html=1;entryX=0.5;entryY=0;entryDx=0;entryDy=0;" edge="1" parent="1" source="HkZ7-6mY7OGyiAFKH2yv-30" target="HkZ7-6mY7OGyiAFKH2yv-32">
          <mxGeometry relative="1" as="geometry" />
        </mxCell>
        <mxCell id="HkZ7-6mY7OGyiAFKH2yv-30" value="Отправляем запрос во внешнюю модель" style="rounded=0;whiteSpace=wrap;html=1;" vertex="1" parent="1">
          <mxGeometry x="792" y="1220" width="120" height="60" as="geometry" />
        </mxCell>
        <mxCell id="HkZ7-6mY7OGyiAFKH2yv-31" style="edgeStyle=orthogonalEdgeStyle;rounded=0;orthogonalLoop=1;jettySize=auto;html=1;entryX=0.5;entryY=0;entryDx=0;entryDy=0;" edge="1" parent="1" source="HkZ7-6mY7OGyiAFKH2yv-32" target="HkZ7-6mY7OGyiAFKH2yv-26">
          <mxGeometry relative="1" as="geometry" />
        </mxCell>
        <mxCell id="HkZ7-6mY7OGyiAFKH2yv-32" value="Сохраняем вопрос с ответом в бз" style="rounded=0;whiteSpace=wrap;html=1;" vertex="1" parent="1">
          <mxGeometry x="792" y="1320" width="120" height="60" as="geometry" />
        </mxCell>
      </root>
    </mxGraphModel>
  </diagram>
</mxfile>
